<svg xmlns="http://www.w3.org/2000/svg" viewBox="0 0 64 64">
  <!-- Background circle -->
  <circle cx="32" cy="32" r="32" fill="#0b1322"/>
  <!-- Football / soccer ball -->
  <circle cx="32" cy="32" r="18" fill="white" stroke="#c9a227" stroke-width="1.5"/>
  <!-- Pentagon patches -->
  <polygon points="32,14 38,19 36,26 28,26 26,19" fill="#1a2a4a"/>
  <polygon points="14,28 20,24 26,28 24,35 17,35" fill="#1a2a4a"/>
  <polygon points="18,44 22,38 29,39 31,46 25,50" fill="#1a2a4a"/>
  <polygon points="46,44 39,50 33,46 35,39 42,38" fill="#1a2a4a"/>
  <polygon points="50,28 47,35 40,35 38,28 44,24" fill="#1a2a4a"/>
  <!-- Gold ring -->
  <circle cx="32" cy="32" r="18" fill="none" stroke="#c9a227" stroke-width="2"/>
  <!-- "2026" text -->
  <text x="32" y="57" text-anchor="middle" font-family="Arial,sans-serif" font-size="9" font-weight="bold" fill="#c9a227">2026</text>
</svg>
